<svg version="1.1" id="Layer_1" xmlns="http://www.w3.org/2000/svg" xmlns:xlink="http://www.w3.org/1999/xlink" viewBox="0 0 36 32" xml:space="preserve">
    <path fill="#512BD4" d="M18.1,0L0,7.7v16.4L18.1,32L36,24.1V7.7L18.1,0z M28.6,23.1c-1.2,1.1-2.6,1.9-4.1,2.5
        c-1.5,0.6-3.2,0.9-4.9,0.9c-1.9,0-3.6-0.3-5.1-1c-1.5-0.6-2.7-1.5-3.8-2.6s-1.9-2.4-2.5-4c-0.6-1.5-0.9-3.3-0.9-5.1
        c0-1.8,0.3-3.5,0.9-5.1s1.4-2.9,2.5-4s2.4-2,3.8-2.6C16.1,2.3,17.8,2,19.6,2c1.7,0,3.4,0.3,4.9,0.9c1.5,0.6,2.8,1.4,4.1,2.5
        l-1.7,2.1c-0.9-0.8-1.9-1.4-3-1.9s-2.4-0.7-3.7-0.7c-1.6,0-3.1,0.3-4.4,1c-1.3,0.7-2.5,1.6-3.4,2.8s-1.7,2.6-2.2,4.2
        c-0.5,1.6-0.8,3.2-0.8,5c0,1.8,0.3,3.5,0.8,5c0.5,1.6,1.3,3,2.2,4.2c0.9,1.2,2.1,2.1,3.4,2.8c1.3,0.7,2.8,1,4.4,1
        c1.3,0,2.6-0.2,3.7-0.7c1.1-0.4,2.1-1.1,3-1.9L28.6,23.1z"/>
</svg>
